<svg width="120" height="48" viewBox="0 0 120 48" fill="none" xmlns="http://www.w3.org/2000/svg">
<rect width="120" height="48" rx="3" fill="white"/>
<path d="M60.6406 30.334C60.5586 32.1152 60.0781 33.6914 59.1992 35.0625C58.3203 36.4219 57.084 37.4766 55.4902 38.2266C53.9082 38.9766 52.0977 39.3516 50.0586 39.3516C46.6953 39.3516 44.0469 38.2559 42.1133 36.0645C40.1797 33.873 39.2129 30.7793 39.2129 26.7832V25.5176C39.2129 23.0098 39.6465 20.8184 40.5137 18.9434C41.3926 17.0566 42.6523 15.6035 44.293 14.584C45.9336 13.5527 47.832 13.0371 49.9883 13.0371C53.0938 13.0371 55.5898 13.8574 57.4766 15.498C59.3633 17.127 60.4355 19.377 60.6934 22.248H54.541C54.4941 20.6895 54.1016 19.5703 53.3633 18.8906C52.625 18.2109 51.5 17.8711 49.9883 17.8711C48.4531 17.8711 47.3281 18.4453 46.6133 19.5938C45.8984 20.7422 45.5234 22.5762 45.4883 25.0957V26.9062C45.4883 29.6367 45.8281 31.5879 46.5078 32.7598C47.1992 33.9316 48.3828 34.5176 50.0586 34.5176C51.4766 34.5176 52.5605 34.1836 53.3105 33.5156C54.0605 32.8477 54.459 31.7871 54.5059 30.334H60.6406ZM62.5391 29.3145C62.5391 27.416 62.9082 25.7285 63.6465 24.252C64.3848 22.7637 65.4453 21.6211 66.8281 20.8242C68.2109 20.0273 69.834 19.6289 71.6973 19.6289C74.5449 19.6289 76.7891 20.5137 78.4297 22.2832C80.0703 24.041 80.8906 26.4375 80.8906 29.4727V29.6836C80.8906 32.6484 80.0645 35.0039 78.4121 36.75C76.7715 38.4844 74.5449 39.3516 71.7324 39.3516C69.0254 39.3516 66.8516 38.543 65.2109 36.9258C63.5703 35.2969 62.6855 33.0938 62.5566 30.3164L62.5391 29.3145ZM68.4629 29.6836C68.4629 31.4414 68.7383 32.7305 69.2891 33.5508C69.8398 34.3711 70.6543 34.7812 71.7324 34.7812C73.8418 34.7812 74.9199 33.1582 74.9668 29.9121V29.3145C74.9668 25.9043 73.877 24.1992 71.6973 24.1992C69.7168 24.1992 68.6445 25.6699 68.4805 28.6113L68.4629 29.6836ZM82.7539 29.3145C82.7539 27.416 83.123 25.7285 83.8613 24.252C84.5996 22.7637 85.6602 21.6211 87.043 20.8242C88.4258 20.0273 90.0488 19.6289 91.9121 19.6289C94.7598 19.6289 97.0039 20.5137 98.6445 22.2832C100.285 24.041 101.105 26.4375 101.105 29.4727V29.6836C101.105 32.6484 100.279 35.0039 98.627 36.75C96.9863 38.4844 94.7598 39.3516 91.9473 39.3516C89.2402 39.3516 87.0664 38.543 85.4258 36.9258C83.7852 35.2969 82.9004 33.0938 82.7715 30.3164L82.7539 29.3145ZM88.6777 29.6836C88.6777 31.4414 88.9531 32.7305 89.5039 33.5508C90.0547 34.3711 90.8691 34.7812 91.9473 34.7812C94.0566 34.7812 95.1348 33.1582 95.1816 29.9121V29.3145C95.1816 25.9043 94.0918 24.1992 91.9121 24.1992C89.9316 24.1992 88.8594 25.6699 88.6953 28.6113L88.6777 29.6836ZM109.965 39H104.023V12H109.965V39Z" fill="#1EA896"/>
<path d="M16.5078 39H10.3555V13.4062H16.5078V39ZM30.4824 33.6562C30.4824 33.1523 30.2188 32.748 29.6914 32.4434C29.1641 32.1387 28.1621 31.8223 26.6855 31.4941C25.209 31.166 23.9902 30.7383 23.0293 30.2109C22.0684 29.6719 21.3359 29.0215 20.832 28.2598C20.3281 27.498 20.0762 26.625 20.0762 25.6406C20.0762 23.8945 20.7969 22.459 22.2383 21.334C23.6797 20.1973 25.5664 19.6289 27.8984 19.6289C30.4062 19.6289 32.4219 20.1973 33.9453 21.334C35.4688 22.4707 36.2305 23.9648 36.2305 25.8164H30.2891C30.2891 24.293 29.4863 23.5312 27.8809 23.5312C27.2598 23.5312 26.7383 23.707 26.3164 24.0586C25.8945 24.3984 25.6836 24.8262 25.6836 25.3418C25.6836 25.8691 25.9414 26.2969 26.457 26.625C26.9727 26.9531 27.793 27.2227 28.918 27.4336C30.0547 27.6445 31.0508 27.8965 31.9062 28.1895C34.7656 29.1738 36.1953 30.9375 36.1953 33.4805C36.1953 35.2148 35.4219 36.627 33.875 37.7168C32.3398 38.8066 30.3477 39.3516 27.8984 39.3516C26.2695 39.3516 24.8164 39.0586 23.5391 38.4727C22.2617 37.8867 21.2656 37.0898 20.5508 36.082C19.8359 35.0742 19.4785 34.0137 19.4785 32.9004H25.0156C25.0391 33.7793 25.332 34.4238 25.8945 34.834C26.457 35.2324 27.1777 35.4316 28.0566 35.4316C28.8652 35.4316 29.4688 35.2676 29.8672 34.9395C30.2773 34.6113 30.4824 34.1836 30.4824 33.6562Z" fill="#FF715B"/>
<path d="M76.479 12.9871C75.8126 12.6235 75 13.1058 75 13.8649V15.5865C75 15.9524 75.1998 16.289 75.521 16.4643L81.521 19.7386C81.8195 19.9015 82.1805 19.9015 82.479 19.7386L88.479 16.4643C88.8002 16.289 89 15.9524 89 15.5865V13.8649C89 13.1058 88.1874 12.6235 87.521 12.9871L82.479 15.7386C82.1805 15.9015 81.8195 15.9015 81.521 15.7386L76.479 12.9871ZM82.4789 2.26119C82.1804 2.09839 81.8196 2.09839 81.5211 2.26119L72.6095 7.1221C71.9146 7.50112 71.9146 8.49888 72.6095 8.8779L81.5211 13.7388C81.8196 13.9016 82.1804 13.9016 82.4789 13.7387L89.5211 9.89683C90.1875 9.53329 91 10.0156 91 10.7747V15C91 15.5523 91.4477 16 92 16C92.5523 16 93 15.5523 93 15V8.59363C93 8.22769 92.8001 7.89097 92.4789 7.71574L82.4789 2.26119Z" fill="#4C5454"/>
</svg>
